<svg width="485" height="260" viewBox="0 0 485 260" fill="none" xmlns="http://www.w3.org/2000/svg">
<g clip-path="url(#clip0_317_7422)">
<rect width="485" height="260" rx="24" fill="url(#paint0_linear_317_7422)"></rect>
<g opacity="0.1" clip-path="url(#clip1_317_7422)">
<path d="M498.12 78.3619C489.596 60.3379 473.261 46.2134 452.333 41.2974C431.404 36.3815 410.489 41.7562 394.832 54.1001L388.732 80.0679C382.032 108.593 399.72 137.142 428.245 143.843C456.77 150.543 485.32 132.855 492.02 104.33L498.12 78.3619Z" fill="url(#paint1_linear_317_7422)"></path>
<path d="M519.911 -34.3186C527.866 -13.5316 509.905 12.2493 479.804 23.2836C449.702 34.3179 418.852 26.4068 410.896 5.62927C402.939 -15.1483 420.902 -40.9386 451.001 -51.9635C481.103 -62.9978 511.952 -55.0867 519.909 -34.3092" fill="url(#paint2_linear_317_7422)"></path>
<path d="M223.263 -23.8199L347.818 5.43734C353.514 6.48753 358.889 6.11333 363.95 4.33574C369.001 2.55594 373.585 -0.107392 377.678 -3.63984C381.772 -7.17228 385.254 -11.3543 388.125 -16.1858C390.996 -21.0173 393.034 -25.9752 394.228 -31.0615C395.423 -36.1479 395.833 -41.7361 395.356 -47.4335C394.876 -53.1214 393.506 -58.5226 391.222 -63.6226C388.938 -68.7226 385.782 -73.194 381.766 -77.0441C377.738 -80.887 372.777 -83.5008 366.872 -84.8877L244.367 -113.664C241.621 -114.308 239.053 -113.89 236.684 -112.422C234.304 -110.948 232.798 -108.841 232.153 -106.096C231.508 -103.351 231.917 -100.784 233.394 -98.4138C234.859 -96.0359 236.975 -94.527 239.72 -93.8821L357.892 -66.1244C362.564 -65.0268 366.206 -63.2586 368.832 -60.8364C371.446 -58.4069 373.322 -55.7538 374.462 -52.877C375.592 -50.0024 376.129 -47.0092 376.047 -43.9135C375.974 -40.8156 375.646 -38.0256 375.065 -35.5529C374.485 -33.0802 373.536 -30.436 372.222 -27.6296C370.915 -24.8116 369.104 -22.3799 366.812 -20.3092C364.511 -18.2406 361.649 -16.7005 358.229 -15.6983C354.798 -14.6889 350.751 -14.7366 346.079 -15.8342L237.798 -41.2687L243.703 -66.4091C244.348 -69.1544 243.937 -71.7113 242.462 -74.0914C240.985 -76.4621 238.881 -77.9782 236.136 -78.623C233.391 -79.2679 230.824 -78.8588 228.454 -77.382C226.074 -75.9073 224.567 -73.8009 223.922 -71.0556L215.693 -36.0245C215.049 -33.2792 215.458 -30.7129 216.934 -28.3422C218.4 -25.9643 220.516 -24.4554 223.261 -23.8105" fill="url(#paint3_linear_317_7422)"></path>
<path d="M-165.192 -11.8002C-163.099 -6.81465 -160.189 -2.39123 -156.45 1.45345C-152.722 5.30533 -148.063 8.02657 -142.496 9.62207L130.504 73.7482C136.409 75.1351 142.024 75.0058 147.333 73.3558C152.65 71.7081 157.467 69.1094 161.776 65.5481C166.092 61.9984 169.723 57.7722 172.685 52.8925C175.646 48.0128 177.737 42.9582 178.964 37.7308C180.192 32.5034 180.54 27.3073 180.122 21.6934C179.703 16.0889 178.437 10.7917 176.354 5.8083C174.261 0.822714 171.349 -3.59133 167.612 -7.44542C163.872 -11.2901 159.225 -14.0185 153.658 -15.614L-119.352 -79.7423C-125.256 -81.1292 -130.872 -80.9999 -136.18 -79.35C-141.497 -77.7022 -146.316 -75.0941 -150.623 -71.5422C-154.939 -67.9926 -158.58 -63.7685 -161.532 -58.8866C-164.494 -54.007 -166.586 -48.9429 -167.812 -43.7249C-169.037 -38.5069 -169.389 -33.292 -168.97 -27.6875C-168.552 -22.0737 -167.284 -16.7858 -165.201 -11.8025M-145.798 -47.1452C-144.484 -49.9516 -142.68 -52.3949 -140.379 -54.4635C-138.087 -56.5342 -135.253 -58.0809 -131.897 -59.108C-128.543 -60.1257 -124.457 -60.0786 -119.643 -58.9479L142.648 2.66291C147.312 3.75829 150.966 5.51929 153.579 7.94873C156.193 10.3782 158.07 13.0313 159.21 15.9081C160.349 18.7849 160.877 21.7759 160.804 24.8738C160.731 27.9718 160.403 30.7617 159.822 33.2344C159.242 35.7071 158.293 38.3513 156.979 41.1577C155.665 43.9641 153.861 46.4074 151.56 48.476C149.258 50.5445 146.397 52.0846 142.977 53.0868C139.555 54.0984 135.499 54.0485 130.836 52.9531L-131.456 -8.65762C-136.27 -9.78834 -139.952 -11.556 -142.5 -13.97C-145.048 -16.3839 -146.896 -19.0304 -148.029 -21.8956C-149.168 -24.7724 -149.698 -27.754 -149.623 -30.8614C-149.55 -33.9593 -149.222 -36.7493 -148.641 -39.2219C-148.061 -41.6946 -147.114 -44.3294 -145.798 -47.1452Z" fill="url(#paint4_linear_317_7422)"></path>
<path d="M196.692 89.2933C199.296 89.905 201.825 89.4871 204.271 88.0279C206.715 86.5781 208.261 84.4712 208.906 81.7258L213.02 64.2103C213.504 62.1513 214.529 60.5765 216.083 59.4932C217.646 58.412 219.343 57.9474 221.195 58.0849L264.425 68.2393C271.843 69.9818 285.707 74.1809 292.161 77.5816C298.614 80.9823 304.677 84.9461 310.351 89.4636C316.034 93.9927 321.367 98.8665 326.377 104.101C331.379 109.333 336.215 114.676 340.879 120.116C342.758 122.591 344.874 124.1 347.206 124.648C349.951 125.293 352.508 124.882 354.888 123.407C357.256 121.939 358.775 119.826 359.419 117.081C359.872 115.153 359.713 113.34 358.951 111.643C358.189 109.946 357.18 108.37 355.936 106.907C352.692 102.812 349.458 98.967 346.249 95.3959C343.033 91.8131 339.841 88.4245 336.687 85.2133L337.505 85.4054C341.35 86.3087 345.121 86.4305 348.834 85.7849C352.54 85.1276 355.952 83.8655 359.081 81.9913C362.2 80.1149 364.871 77.6968 367.082 74.744C369.296 71.7819 370.859 68.3792 371.762 64.5339C372.666 60.6885 372.781 56.9458 372.118 53.3079C371.454 49.67 370.139 46.3155 368.181 43.2465C366.214 40.1754 363.722 37.5263 360.696 35.2878C357.67 33.0493 354.228 31.4867 350.382 30.5835L217.789 -0.561982C215.043 -1.20684 212.475 -0.788352 210.106 0.679095C207.726 2.15374 206.22 4.26013 205.575 7.00546C204.93 9.75079 205.339 12.3171 206.816 14.6878C208.281 17.0657 210.397 18.5746 213.142 19.2194L346.563 50.5592C348.622 51.0429 350.267 52.2328 351.493 54.1081C352.717 55.9929 353.087 57.9647 352.604 60.0237C352.087 62.2237 350.869 63.8622 348.951 64.9296C347.032 66.0065 345.04 66.2926 342.981 65.8089L224.603 38.0026C221.03 37.1634 217.578 37.037 214.253 37.6349C210.928 38.2329 207.895 39.4053 205.162 41.1543C202.43 42.9034 200.052 45.1721 198.019 47.9584C195.985 50.7446 194.57 53.8546 193.764 57.2863L189.117 77.0677C188.473 79.813 188.882 82.3793 190.359 84.75C191.824 87.1279 193.94 88.6368 196.685 89.2817" fill="url(#paint5_linear_317_7422)"></path>
<path d="M152.341 103.648C149.596 103.003 147.03 103.412 144.659 104.889C142.279 106.364 140.772 108.47 140.127 111.216L131.947 146.04C131.367 148.512 130.418 151.157 129.104 153.963C127.8 156.772 125.986 159.213 123.694 161.284C121.393 163.352 118.531 164.892 115.111 165.894C111.68 166.904 107.633 166.856 102.961 165.759L22.8009 146.929C17.9966 145.801 14.3146 144.033 11.7666 141.619C9.20914 139.203 7.36996 136.559 6.23744 133.694C5.09773 130.817 4.56796 127.835 4.6431 124.728C4.71603 121.63 5.044 118.84 5.62482 116.367L13.8048 81.5431C14.4497 78.7978 14.029 76.2387 12.5638 73.8608C11.0891 71.4807 8.98272 69.974 6.23739 69.3291C3.49207 68.6843 0.925746 69.0934 -1.44495 70.5702C-3.82505 72.0448 -5.33173 74.1512 -5.97659 76.8966L-14.1566 111.721C-15.3514 116.807 -15.7342 122.154 -15.3146 127.758C-14.8972 133.372 -13.641 138.667 -11.546 143.643C-9.45319 148.629 -6.54384 153.052 -2.80412 156.897C0.923999 160.749 5.58237 163.47 11.15 165.066L103.259 186.702C109.164 188.088 114.779 187.959 120.097 186.311C125.415 184.664 130.231 182.065 134.54 178.504C138.856 174.954 142.487 170.728 145.449 165.848C148.411 160.968 150.501 155.914 151.729 150.686L159.909 115.862C160.554 113.117 160.142 110.56 158.668 108.18C157.193 105.8 155.087 104.293 152.341 103.648Z" fill="url(#paint6_linear_317_7422)"></path>
<path d="M338.092 162.604C335.808 157.504 332.652 153.033 328.636 149.182C324.608 145.339 319.647 142.726 313.733 141.337L191.237 112.563C188.492 111.918 185.923 112.337 183.555 113.804C181.174 115.279 179.668 117.385 179.023 120.13C178.378 122.876 178.787 125.442 180.264 127.813C181.729 130.191 183.845 131.7 186.59 132.344L304.762 160.102C309.434 161.2 313.079 162.959 315.702 165.39C318.316 167.82 320.193 170.473 321.332 173.35C322.472 176.226 323 179.217 322.927 182.315C322.854 185.413 322.526 188.203 321.945 190.676C321.364 193.149 320.416 195.793 319.102 198.599C317.788 201.406 315.984 203.849 313.682 205.917C311.381 207.986 308.519 209.526 305.099 210.528C301.668 211.538 297.621 211.49 292.949 210.392L184.668 184.958L190.573 159.817C191.218 157.072 190.798 154.513 189.332 152.135C187.856 149.764 185.751 148.248 183.006 147.603C180.261 146.959 177.694 147.368 175.324 148.845C172.944 150.319 171.437 152.426 170.792 155.171L162.564 190.202C161.919 192.947 162.328 195.514 163.805 197.884C165.27 200.262 167.386 201.771 170.131 202.416L294.686 231.673C300.382 232.723 305.755 232.359 310.818 230.572C315.869 228.792 320.453 226.129 324.546 222.596C328.64 219.064 332.122 214.882 334.993 210.05C337.864 205.219 339.902 200.261 341.096 195.174C342.291 190.088 342.701 184.5 342.224 178.802C341.744 173.115 340.374 167.713 338.09 162.613" fill="url(#paint7_linear_317_7422)"></path>
<path d="M448.578 246.94L380.424 230.931C378.496 230.478 377.076 229.599 376.151 228.3C375.228 226.992 374.926 225.661 375.25 224.279L377.622 214.181L447.637 230.628C450.383 231.272 452.939 230.861 455.32 229.387C457.69 227.91 459.206 225.805 459.851 223.06C460.496 220.315 460.085 217.758 458.61 215.378C457.133 213.007 455.029 211.491 452.284 210.846L382.269 194.4L385.851 179.15L460.398 196.661C463.143 197.306 465.7 196.895 468.08 195.42C470.448 193.952 471.967 191.839 472.612 189.093C473.256 186.348 472.845 183.791 471.37 181.411C469.894 179.04 467.789 177.524 465.044 176.88L380.607 157.046C380.607 157.046 380.588 157.041 380.569 157.037C377.831 156.404 375.283 156.817 372.924 158.287C370.556 159.754 369.063 161.844 368.404 164.566C368.399 164.585 368.397 164.594 368.393 164.613L361.398 194.389C361.235 195.084 361.149 195.788 361.135 196.48C360.809 197.236 360.531 198.083 360.308 199.033L355.95 217.583C354.983 221.701 354.863 225.591 355.604 229.237C356.342 232.893 357.6 236.155 359.391 239.046C361.173 241.934 363.426 244.378 366.146 246.396C368.857 248.412 371.732 249.772 374.75 250.481L443.938 266.733C446.683 267.377 449.24 266.966 451.621 265.492C453.989 264.024 455.507 261.91 456.152 259.165C456.797 256.42 456.386 253.863 454.911 251.483C453.436 249.103 451.33 247.596 448.585 246.951" fill="url(#paint8_linear_317_7422)"></path>
</g>
<g clip-path="url(#clip2_317_7422)">
<path d="M85.8888 36.7232C84.6797 35.1942 82.8172 34.2124 80.7244 34.2124C78.6316 34.2124 76.7691 35.1942 75.5601 36.7232V39.3381C75.5601 42.2105 77.8719 44.5386 80.7244 44.5386C83.5769 44.5386 85.8888 42.2105 85.8888 39.3381V36.7232Z" fill="white"></path>
<path d="M85.447 25.4822C86.6636 27.2877 85.5354 30.1506 82.9283 31.8784C80.3212 33.6063 77.2215 33.5428 76.0049 31.7383C74.7883 29.9338 75.9165 27.0699 78.5236 25.3431C81.1307 23.6152 84.2304 23.6787 85.447 25.4832" fill="white"></path>
<path d="M38.8888 32.3861C39.122 32.6218 39.39 32.8045 39.6927 32.9361C39.9945 33.0677 40.2972 33.133 40.599 33.133H53.6843C53.9588 33.133 54.192 33.0365 54.3847 32.8424C54.5765 32.6493 54.6734 32.4135 54.6734 32.1371C54.6734 31.8606 54.5775 31.6249 54.3847 31.4317C54.192 31.2377 53.9588 31.1411 53.6843 31.1411H40.7024C40.5097 31.1411 40.3555 31.089 40.2389 30.9858C40.1224 30.8817 40.0641 30.7614 40.0641 30.6223V29.6055H53.2312C53.5057 29.6055 53.7388 29.5089 53.9316 29.3148C54.1234 29.1207 54.2202 28.8859 54.2202 28.6095C54.2202 28.333 54.1243 28.0982 53.9316 27.9042C53.7388 27.711 53.5057 27.6135 53.2312 27.6135H40.0641V26.0779H53.6843C53.9588 26.0779 54.192 25.9813 54.3847 25.7872C54.5765 25.5941 54.6734 25.3584 54.6734 25.0819C54.6734 24.8055 54.5775 24.5707 54.3847 24.3766C54.192 24.1835 53.9588 24.0859 53.6843 24.0859H39.0741C39.0741 24.0859 39.0722 24.0859 39.0703 24.0859C38.7967 24.0859 38.5645 24.1835 38.3736 24.3766C38.1818 24.5697 38.0869 24.8026 38.0859 25.0772C38.0859 25.0791 38.0859 25.08 38.0859 25.0819V28.0803C38.0859 28.1503 38.0935 28.2194 38.1076 28.2857C38.0935 28.3652 38.0859 28.4523 38.0859 28.548V30.4159C38.0859 30.8306 38.1612 31.2045 38.3125 31.5368C38.4639 31.8691 38.6557 32.1522 38.8898 32.388" fill="white"></path>
<path d="M57.5672 33.133H70.0226C70.5857 33.1056 71.0869 32.9494 71.5269 32.6663C71.9659 32.3832 72.341 32.0263 72.6504 31.5974C72.9597 31.1685 73.1966 30.6914 73.3611 30.1659C73.5256 29.6405 73.6084 29.1217 73.6084 28.6095C73.6084 28.0973 73.5228 27.5548 73.3508 27.0218C73.1787 26.4897 72.9286 26.005 72.5986 25.5695C72.2686 25.134 71.87 24.778 71.4037 24.5006C70.9364 24.2242 70.408 24.0859 69.8176 24.0859H57.5672C57.2927 24.0859 57.0586 24.1835 56.8668 24.3766C56.674 24.5707 56.5781 24.8055 56.5781 25.0819C56.5781 25.3584 56.674 25.5941 56.8668 25.7872C57.0586 25.9813 57.2927 26.0779 57.5672 26.0779H69.3842C69.8515 26.0779 70.236 26.165 70.5387 26.3373C70.8405 26.5106 71.0774 26.7217 71.2495 26.9707C71.4206 27.2197 71.5381 27.4933 71.5992 27.7906C71.6613 28.0878 71.6923 28.3614 71.6923 28.6104C71.6923 28.8594 71.6613 29.133 71.5992 29.4303C71.5381 29.7285 71.4206 30.0012 71.2495 30.2502C71.0774 30.4992 70.8405 30.7103 70.5387 30.8826C70.236 31.0559 69.8515 31.142 69.3842 31.142H58.5562V28.6104C58.5562 28.334 58.4604 28.0992 58.2676 27.9051C58.0749 27.712 57.8417 27.6145 57.5672 27.6145C57.2927 27.6145 57.0586 27.711 56.8668 27.9051C56.674 28.0992 56.5781 28.334 56.5781 28.6104V32.138C56.5781 32.4145 56.674 32.6502 56.8668 32.8433C57.0586 33.0374 57.2927 33.134 57.5672 33.134" fill="white"></path>
<path d="M21.0205 42.988C21.3298 43.4169 21.704 43.7738 22.144 44.0569C22.5831 44.3409 23.0851 44.4962 23.6483 44.5237H50.948C51.5385 44.5237 52.0678 44.3854 52.5341 44.109C53.0014 43.8325 53.4 43.4766 53.7291 43.0401C54.0591 42.6046 54.3091 42.1199 54.4812 41.5878C54.6532 41.0557 54.7388 40.5265 54.7388 40.0001C54.7388 39.4737 54.6561 38.9701 54.4915 38.4437C54.327 37.9182 54.0891 37.4411 53.7808 37.0122C53.4714 36.5833 53.0973 36.2273 52.6573 35.9433C52.2173 35.6602 51.7161 35.504 51.153 35.4766H23.8523C23.2619 35.4766 22.7326 35.6148 22.2662 35.8912C21.799 36.1677 21.4003 36.5246 21.0713 36.9601C20.7413 37.3956 20.4902 37.8803 20.3191 38.4124C20.1471 38.9445 20.0615 39.4747 20.0615 40.0001C20.0615 40.5256 20.1443 41.0311 20.3088 41.5566C20.4733 42.083 20.7112 42.5592 21.0196 42.988M22.0716 39.1802C22.1337 38.883 22.2502 38.6093 22.4223 38.3603C22.5934 38.1114 22.8275 37.9002 23.1227 37.727C23.4179 37.5547 23.8062 37.4676 24.2876 37.4676H50.5165C50.9828 37.4676 51.3683 37.5537 51.6701 37.727C51.9719 37.9002 52.2088 38.1114 52.3808 38.3603C52.5529 38.6093 52.6695 38.883 52.7315 39.1802C52.7936 39.4775 52.8246 39.7511 52.8246 40.0001C52.8246 40.2491 52.7936 40.5227 52.7315 40.82C52.6695 41.1173 52.5529 41.3909 52.3808 41.6399C52.2088 41.8889 51.9719 42.1 51.6701 42.2723C51.3683 42.4456 50.9828 42.5317 50.5165 42.5317H24.2876C23.8062 42.5317 23.4179 42.4456 23.1227 42.2723C22.8275 42.099 22.5934 41.8879 22.4223 41.6399C22.2502 41.3909 22.1337 41.1182 22.0716 40.82C22.0096 40.5227 21.9785 40.2491 21.9785 40.0001C21.9785 39.7511 22.0096 39.4785 22.0716 39.1802Z" fill="white"></path>
<path d="M57.5681 44.5231C57.8286 44.5231 58.0589 44.4266 58.2582 44.2325C58.4575 44.0394 58.5572 43.8036 58.5572 43.5272V41.7634C58.5572 41.556 58.6192 41.3828 58.7424 41.2446C58.8665 41.1063 59.0169 41.024 59.1956 40.9956H63.5185C64.2603 40.9956 65.6677 41.0855 66.355 41.2654C67.0422 41.4453 67.705 41.6876 68.3434 41.9915C68.9827 42.2964 69.5967 42.642 70.1881 43.0292C70.7785 43.4164 71.3557 43.8178 71.9189 44.2325C72.1521 44.4266 72.3862 44.5231 72.6193 44.5231C72.8939 44.5231 73.127 44.4266 73.3198 44.2325C73.5116 44.0394 73.6084 43.8036 73.6084 43.5272C73.6084 43.3331 73.5529 43.1636 73.4429 43.0188C73.3329 42.8739 73.2022 42.7461 73.0518 42.6344C72.6532 42.3163 72.2611 42.0218 71.8775 41.753C71.493 41.4831 71.1151 41.2313 70.7446 40.9956H70.8264C71.2109 40.9956 71.571 40.9227 71.9086 40.7778C72.2451 40.632 72.5404 40.4351 72.7951 40.1861C73.049 39.9371 73.2483 39.6465 73.3922 39.3151C73.536 38.9828 73.6084 38.623 73.6084 38.2358C73.6084 37.8486 73.536 37.4888 73.3922 37.1565C73.2483 36.8242 73.049 36.5336 72.7951 36.2846C72.5404 36.0356 72.2451 35.8386 71.9086 35.6929C71.572 35.5471 71.2109 35.4751 70.8264 35.4751H57.5672C57.2927 35.4751 57.0586 35.5726 56.8668 35.7657C56.674 35.9598 56.5781 36.1946 56.5781 36.4711C56.5781 36.7475 56.674 36.9833 56.8668 37.1764C57.0586 37.3705 57.2927 37.4671 57.5672 37.4671H70.9092C71.1151 37.4671 71.2975 37.5437 71.4554 37.6952C71.6133 37.8476 71.6923 38.0275 71.6923 38.2349C71.6923 38.4564 71.6133 38.6401 71.4554 38.7849C71.2975 38.9307 71.1151 39.0027 70.9092 39.0027H59.0715C58.7142 39.0027 58.3842 39.068 58.0824 39.1996C57.7806 39.3312 57.5192 39.5111 57.2992 39.7392C57.0792 39.9674 56.9044 40.2372 56.7737 40.5487C56.643 40.8602 56.5781 41.1887 56.5781 41.5343V43.5262C56.5781 43.8027 56.674 44.0384 56.8668 44.2315C57.0586 44.4256 57.2927 44.5222 57.5672 44.5222" fill="white"></path>
<path d="M21.0515 33.237C21.312 33.237 21.5423 33.1404 21.7416 32.9464C21.9409 32.7532 22.0406 32.5175 22.0406 32.241V30.4773C22.0406 30.2699 22.1026 30.0967 22.2258 29.9584C22.3499 29.8202 22.5003 29.7378 22.679 29.7094H26.78C27.5218 29.7094 28.2363 29.7994 28.9226 29.9793C29.6099 30.1591 30.2727 30.4015 30.9111 30.7054C31.5504 31.0103 32.1643 31.3558 32.7557 31.743C33.3461 32.1303 33.9234 32.5317 34.4866 32.9464C34.7197 33.1404 34.9538 33.237 35.187 33.237C35.4615 33.237 35.6947 33.1404 35.8874 32.9464C36.0792 32.7532 36.1761 32.5175 36.1761 32.241C36.1761 32.047 36.1206 31.8775 36.0106 31.7326C35.9006 31.5878 35.7699 31.46 35.6195 31.3483C35.2208 31.0301 34.8297 30.7357 34.4452 30.4668C34.0607 30.197 33.6827 29.9452 33.3123 29.7094H33.3941C33.7786 29.7094 34.1387 29.6365 34.4762 29.4917C34.8128 29.3459 35.108 29.149 35.3628 28.9C35.6167 28.651 35.816 28.3603 35.9598 28.029C36.1037 27.6967 36.1761 27.3369 36.1761 26.9497C36.1761 26.5625 36.1037 26.2027 35.9598 25.8704C35.816 25.5381 35.6167 25.2474 35.3628 24.9984C35.108 24.7494 34.8128 24.5525 34.4762 24.4067C34.1396 24.2609 33.7786 24.189 33.3941 24.189H21.0506C20.7761 24.189 20.542 24.2865 20.3502 24.4796C20.1574 24.6737 20.0615 24.9085 20.0615 25.1849C20.0615 25.4614 20.1574 25.6971 20.3502 25.8903C20.542 26.0843 20.7761 26.1809 21.0506 26.1809H33.4759C33.6818 26.1809 33.8642 26.2576 34.0221 26.4091C34.1801 26.5615 34.259 26.7414 34.259 26.9487C34.259 27.1703 34.1801 27.3539 34.0221 27.4988C33.8642 27.6446 33.6818 27.7165 33.4759 27.7165H22.5549C22.1976 27.7165 21.8676 27.7819 21.5658 27.9135C21.264 28.0451 21.0026 28.2249 20.7826 28.4531C20.5626 28.6813 20.3878 28.9511 20.2571 29.2626C20.1264 29.5741 20.0615 29.9026 20.0615 30.2481V32.2401C20.0615 32.5165 20.1574 32.7523 20.3502 32.9454C20.542 33.1395 20.7761 33.2361 21.0506 33.2361" fill="white"></path>
<path d="M35.2171 48.4028C34.9078 47.9739 34.5336 47.618 34.0936 47.3339C33.6536 47.0509 33.1525 46.8946 32.5893 46.8672H23.8523C23.2619 46.8672 22.7326 47.0054 22.2662 47.2819C21.799 47.5593 21.4003 47.9152 21.0713 48.3507C20.7413 48.7862 20.4902 49.271 20.3191 49.803C20.1471 50.3361 20.0615 50.8653 20.0615 51.3907V54.9183C20.0615 55.1948 20.1574 55.4305 20.3502 55.6236C20.542 55.8177 20.7761 55.9143 21.0506 55.9143C21.3251 55.9143 21.5583 55.8177 21.751 55.6236C21.9428 55.4305 22.0396 55.1948 22.0396 54.9183V51.3907C22.0396 51.1417 22.0707 50.8691 22.1327 50.5709C22.1948 50.2736 22.3114 50 22.4834 49.751C22.6555 49.502 22.8886 49.2909 23.1838 49.1176C23.479 48.9453 23.8673 48.8582 24.3478 48.8582H31.8898C32.3561 48.8582 32.7416 48.9453 33.0434 49.1176C33.3452 49.2909 33.5821 49.502 33.7542 49.751C33.9262 50 34.0428 50.2736 34.1039 50.5709C34.166 50.8681 34.197 51.1417 34.197 51.3907V54.9183C34.197 55.1948 34.2929 55.4305 34.4856 55.6236C34.6774 55.8177 34.9115 55.9143 35.1861 55.9143C35.4606 55.9143 35.6937 55.8177 35.8865 55.6236C36.0783 55.4305 36.1751 55.1948 36.1751 54.9183V51.3907C36.1751 50.8795 36.0924 50.3607 35.9279 49.8343C35.7633 49.3088 35.5264 48.8317 35.2171 48.4028Z" fill="white"></path>
<path d="M53.6838 46.8875C53.4093 46.8875 53.1752 46.984 52.9834 47.1781C52.7906 47.3722 52.6947 47.607 52.6947 47.8834V51.3902C52.6947 51.6392 52.6637 51.9128 52.6017 52.2101C52.5405 52.5073 52.423 52.7809 52.2519 53.0299C52.0799 53.2789 51.8429 53.4901 51.5411 53.6624C51.2384 53.8356 50.8539 53.9218 50.3866 53.9218H42.3707C41.8903 53.9218 41.502 53.8356 41.2068 53.6624C40.9106 53.4891 40.6775 53.278 40.5064 53.0299C40.3343 52.7809 40.2177 52.5083 40.1557 52.2101C40.0936 51.9128 40.0626 51.6392 40.0626 51.3902V47.8834C40.0626 47.607 39.9658 47.3722 39.774 47.1781C39.5812 46.984 39.3481 46.8875 39.0735 46.8875C38.799 46.8875 38.5649 46.984 38.3731 47.1781C38.1804 47.3722 38.0845 47.607 38.0845 47.8834V51.3902C38.0845 51.9024 38.1672 52.4212 38.3317 52.9466C38.4963 53.473 38.7332 53.9502 39.0425 54.3781C39.3518 54.807 39.726 55.1639 40.166 55.447C40.6051 55.731 41.1071 55.8863 41.6703 55.9137H50.8811C51.4716 55.9137 52.0009 55.7755 52.4682 55.4991C52.9354 55.2226 53.334 54.8666 53.6631 54.4302C53.9931 53.9947 54.2432 53.5099 54.4152 52.9779C54.5873 52.4458 54.6729 51.9166 54.6729 51.3902V47.8834C54.6729 47.607 54.577 47.3722 54.3842 47.1781C54.1915 46.984 53.9583 46.8875 53.6838 46.8875Z" fill="white"></path>
<path d="M72.6006 48.3507C72.2706 47.9152 71.872 47.5593 71.4056 47.2819C70.9384 47.0054 70.41 46.8672 69.8186 46.8672H57.5691C57.2946 46.8672 57.0605 46.9647 56.8687 47.1578C56.676 47.3519 56.5801 47.5867 56.5801 47.8632C56.5801 48.1396 56.676 48.3754 56.8687 48.5685C57.0605 48.7626 57.2946 48.8591 57.5691 48.8591H69.3862C69.8534 48.8591 70.238 48.9453 70.5407 49.1185C70.8425 49.2918 71.0794 49.5029 71.2514 49.7519C71.4235 50.0009 71.5401 50.2745 71.6021 50.5718C71.6642 50.8691 71.6952 51.1427 71.6952 51.3917C71.6952 51.6407 71.6642 51.9143 71.6021 52.2116C71.5401 52.5088 71.4235 52.7825 71.2514 53.0314C71.0794 53.2804 70.8425 53.4916 70.5407 53.6639C70.238 53.8371 69.8534 53.9233 69.3862 53.9233H58.5582V51.3917C58.5582 51.1152 58.4614 50.8804 58.2696 50.6864C58.0768 50.4932 57.8437 50.3957 57.5691 50.3957C57.2946 50.3957 57.0605 50.4923 56.8687 50.6864C56.676 50.8804 56.5801 51.1152 56.5801 51.3917V54.9193C56.5801 55.1957 56.676 55.4314 56.8687 55.6246C57.0605 55.8187 57.2946 55.9152 57.5691 55.9152H70.0245C70.5877 55.8878 71.0888 55.7325 71.5288 55.4485C71.9679 55.1654 72.343 54.8085 72.6523 54.3796C72.9616 53.9507 73.1985 53.4736 73.3631 52.9481C73.5276 52.4227 73.6103 51.9039 73.6103 51.3917C73.6103 50.8795 73.5248 50.337 73.3527 49.804C73.1807 49.2719 72.9306 48.7872 72.6006 48.3517" fill="white"></path>
<path d="M84.9484 53.9223H78.1331C77.9404 53.9223 77.7862 53.8703 77.6696 53.7671C77.553 53.6629 77.4947 53.5427 77.4947 53.4035V52.3867H84.4962C84.7707 52.3867 85.0039 52.2901 85.1966 52.0961C85.3884 51.902 85.4852 51.6672 85.4852 51.3907C85.4852 51.1143 85.3893 50.8795 85.1966 50.6854C85.0039 50.4923 84.7707 50.3948 84.4962 50.3948H77.4947V48.8591H84.9493C85.2239 48.8591 85.457 48.7626 85.6498 48.5685C85.8416 48.3754 85.9384 48.1396 85.9384 47.8632C85.9384 47.5867 85.8425 47.3519 85.6498 47.1578C85.457 46.9647 85.2239 46.8672 84.9493 46.8672H76.5057C76.5057 46.8672 76.5038 46.8672 76.5019 46.8672C76.2283 46.8681 75.9961 46.9647 75.8052 47.1578C75.6134 47.351 75.5185 47.5839 75.5166 47.8584C75.5166 47.8603 75.5166 47.8613 75.5166 47.8632V50.8615C75.5166 50.9316 75.5241 51.0007 75.5382 51.0669C75.5241 51.1465 75.5166 51.2336 75.5166 51.3292V53.1971C75.5166 53.6118 75.5918 53.9858 75.7432 54.3171C75.8946 54.6494 76.0863 54.9325 76.3205 55.1683C76.5536 55.404 76.8216 55.5867 77.1243 55.7183C77.4261 55.8499 77.7288 55.9152 78.0306 55.9152H84.9493C85.2239 55.9152 85.457 55.8187 85.6498 55.6246C85.8416 55.4314 85.9384 55.1957 85.9384 54.9193C85.9384 54.6428 85.8425 54.408 85.6498 54.2139C85.457 54.0198 85.2239 53.9233 84.9493 53.9233" fill="white"></path>
</g>
<g>
<rect x="329" y="20" width="136" height="40" rx="20" fill="black" fill-opacity="0.1"></rect>
<path d="M355.672 39.2969L353.102 38.9688C352.221 38.8594 351.542 39.0156 351.062 39.4375C350.583 39.8542 350.375 40.3984 350.438 41.0703C350.474 41.4974 350.617 41.8646 350.867 42.1719C351.122 42.474 351.458 42.6927 351.875 42.8281C352.292 42.9635 352.758 43.0078 353.273 42.9609C354.107 42.888 354.732 42.612 355.148 42.1328C355.565 41.6484 355.74 40.9792 355.672 40.125V39.2969ZM355.656 43C355.016 43.651 354.25 44.0156 353.359 44.0938C352.667 44.151 352.042 44.0651 351.484 43.8359C350.927 43.6068 350.477 43.2604 350.133 42.7969C349.794 42.3333 349.599 41.7839 349.547 41.1484C349.495 40.513 349.594 39.9375 349.844 39.4219C350.094 38.9062 350.484 38.487 351.016 38.1641C351.552 37.8411 352.19 37.7292 352.93 37.8281L355.656 38.1719V37.3516H356.547V41.5547C356.547 42.3359 356.742 42.9323 357.133 43.3438C357.523 43.75 358.073 43.9531 358.781 43.9531H358.812L358.922 43.9922V44.8125L358.82 44.8438H358.422C357.766 44.8438 357.211 44.7057 356.758 44.4297C356.326 44.1693 355.958 43.6927 355.656 43ZM352.523 36.2031C352.326 36.2031 352.156 36.1354 352.016 36C351.88 35.8594 351.812 35.6953 351.812 35.5078C351.812 35.3151 351.88 35.151 352.016 35.0156C352.156 34.875 352.326 34.8047 352.523 34.8047C352.727 34.8047 352.896 34.875 353.031 35.0156C353.172 35.151 353.242 35.3151 353.242 35.5078C353.242 35.6953 353.172 35.8594 353.031 36C352.891 36.1354 352.721 36.2031 352.523 36.2031ZM354.797 36.2031C354.599 36.2031 354.43 36.1354 354.289 36C354.154 35.8594 354.086 35.6953 354.086 35.5078C354.086 35.3151 354.154 35.151 354.289 35.0156C354.43 34.875 354.599 34.8047 354.797 34.8047C355 34.8047 355.169 34.875 355.305 35.0156C355.445 35.151 355.516 35.3151 355.516 35.5078C355.516 35.6953 355.445 35.8594 355.305 36C355.164 36.1354 354.995 36.2031 354.797 36.2031ZM358.305 44.8125V43.9844L358.406 43.9531H362.891L362.992 43.9844V44.8125L362.891 44.8438H358.406L358.305 44.8125ZM362.367 44.8125V43.9844L362.469 43.9531H366.953L367.055 43.9844V44.8125L366.953 44.8438H362.469L362.367 44.8125ZM367.57 44.8438H366.508L366.406 44.8125V43.9844L366.508 43.9531H367.336C368.096 43.9531 368.661 43.7552 369.031 43.3594C369.406 42.9635 369.594 42.3359 369.594 41.4766V38H370.727V41.4766C370.727 42.6068 370.461 43.4505 369.93 44.0078C369.404 44.5651 368.617 44.8438 367.57 44.8438ZM367.539 48.0469C367.341 48.0469 367.172 47.9766 367.031 47.8359C366.896 47.7005 366.828 47.5391 366.828 47.3516C366.828 47.1589 366.896 46.9922 367.031 46.8516C367.172 46.7161 367.341 46.6484 367.539 46.6484C367.742 46.6484 367.911 46.7161 368.047 46.8516C368.188 46.9922 368.258 47.1589 368.258 47.3516C368.258 47.5391 368.188 47.7005 368.047 47.8359C367.906 47.9766 367.737 48.0469 367.539 48.0469ZM369.812 48.0469C369.615 48.0469 369.445 47.9766 369.305 47.8359C369.169 47.7005 369.102 47.5391 369.102 47.3516C369.102 47.1589 369.169 46.9922 369.305 46.8516C369.445 46.7161 369.615 46.6484 369.812 46.6484C370.016 46.6484 370.185 46.7161 370.32 46.8516C370.461 46.9922 370.531 47.1589 370.531 47.3516C370.531 47.5391 370.461 47.7005 370.32 47.8359C370.18 47.9766 370.01 48.0469 369.812 48.0469ZM372.609 44.8438V43.9531H377.531V41.8359C377.531 40.7682 377.297 39.9688 376.828 39.4375C376.365 38.901 375.656 38.6328 374.703 38.6328H373.25V37.7422H374.68C376.034 37.7422 377.036 38.0677 377.688 38.7188C378.339 39.3646 378.664 40.3672 378.664 41.7266V43.9531H380.594L380.695 43.9844V44.8125L380.594 44.8438H372.609ZM386.305 43.9531L386.844 41.5C387.031 40.6406 386.938 39.9557 386.562 39.4453C386.188 38.9297 385.664 38.6719 384.992 38.6719C384.56 38.6719 384.18 38.7865 383.852 39.0156C383.529 39.2396 383.281 39.5521 383.109 39.9531C382.938 40.3542 382.852 40.8125 382.852 41.3281C382.852 42.1667 383.073 42.8151 383.516 43.2734C383.958 43.7266 384.612 43.9531 385.477 43.9531H386.305ZM380.125 44.8438L380.023 44.8125V43.9844L380.125 43.9531H383.047C382.161 43.1927 381.719 42.3151 381.719 41.3203C381.719 40.6276 381.857 40.013 382.133 39.4766C382.414 38.9401 382.799 38.5234 383.289 38.2266C383.784 37.9297 384.349 37.7812 384.984 37.7812C385.63 37.7812 386.198 37.9297 386.688 38.2266C387.177 38.5234 387.557 38.9531 387.828 39.5156C388.104 40.0729 388.161 40.7135 388 41.4375L387.422 43.8828C387.839 43.8932 388.146 43.8828 388.344 43.8516C388.984 43.7526 389.539 43.4635 390.008 42.9844C390.383 42.6042 390.63 42.1745 390.75 41.6953C390.875 41.2161 390.854 40.7318 390.688 40.2422C390.526 39.7474 390.227 39.2839 389.789 38.8516C389.466 38.5339 388.701 37.875 387.492 36.875L388.109 36.2344C389.349 37.2604 390.151 37.9531 390.516 38.3125C391.083 38.8698 391.474 39.4766 391.688 40.1328C391.901 40.7891 391.932 41.4349 391.781 42.0703C391.635 42.7057 391.315 43.276 390.82 43.7812C390.331 44.2708 389.789 44.5938 389.195 44.75C388.878 44.8281 388.549 44.8594 388.211 44.8438H380.125ZM402.438 39.2969L399.867 38.9688C398.987 38.8594 398.307 39.0156 397.828 39.4375C397.349 39.8542 397.141 40.3984 397.203 41.0703C397.24 41.4974 397.383 41.8646 397.633 42.1719C397.888 42.474 398.224 42.6927 398.641 42.8281C399.057 42.9635 399.523 43.0078 400.039 42.9609C400.872 42.888 401.497 42.612 401.914 42.1328C402.331 41.6484 402.505 40.9792 402.438 40.125V39.2969ZM402.422 43C401.781 43.651 401.016 44.0156 400.125 44.0938C399.432 44.151 398.807 44.0651 398.25 43.8359C397.693 43.6068 397.242 43.2604 396.898 42.7969C396.56 42.3333 396.365 41.7839 396.312 41.1484C396.26 40.513 396.359 39.9375 396.609 39.4219C396.859 38.9062 397.25 38.487 397.781 38.1641C398.318 37.8411 398.956 37.7292 399.695 37.8281L402.422 38.1719V37.3516H403.312V41.5547C403.312 42.3359 403.508 42.9323 403.898 43.3438C404.289 43.75 404.839 43.9531 405.547 43.9531H405.578L405.688 43.9922V44.8125L405.586 44.8438H405.188C404.531 44.8438 403.977 44.7057 403.523 44.4297C403.091 44.1693 402.724 43.6927 402.422 43ZM399.289 36.2031C399.091 36.2031 398.922 36.1354 398.781 36C398.646 35.8594 398.578 35.6953 398.578 35.5078C398.578 35.3151 398.646 35.151 398.781 35.0156C398.922 34.875 399.091 34.8047 399.289 34.8047C399.492 34.8047 399.661 34.875 399.797 35.0156C399.938 35.151 400.008 35.3151 400.008 35.5078C400.008 35.6953 399.938 35.8594 399.797 36C399.656 36.1354 399.487 36.2031 399.289 36.2031ZM401.562 36.2031C401.365 36.2031 401.195 36.1354 401.055 36C400.919 35.8594 400.852 35.6953 400.852 35.5078C400.852 35.3151 400.919 35.151 401.055 35.0156C401.195 34.875 401.365 34.8047 401.562 34.8047C401.766 34.8047 401.935 34.875 402.07 35.0156C402.211 35.151 402.281 35.3151 402.281 35.5078C402.281 35.6953 402.211 35.8594 402.07 36C401.93 36.1354 401.76 36.2031 401.562 36.2031ZM405.07 44.8125V43.9844L405.172 43.9531H409.656L409.758 43.9844V44.8125L409.656 44.8438H405.172L405.07 44.8125ZM409.133 44.8125V43.9844L409.234 43.9531H413.719L413.82 43.9844V44.8125L413.719 44.8438H409.234L409.133 44.8125ZM420.367 44.8438H413.297L413.195 44.8125V43.9844L413.297 43.9531H415.844C415.208 43.2448 414.891 42.3672 414.891 41.3203C414.891 40.6276 415.029 40.013 415.305 39.4766C415.586 38.9401 415.971 38.5234 416.461 38.2266C416.956 37.9297 417.521 37.7812 418.156 37.7812C418.802 37.7812 419.37 37.9297 419.859 38.2266C420.349 38.5234 420.729 38.9531 421 39.5156C421.276 40.0729 421.333 40.7135 421.172 41.4375L420.367 44.8438ZM419.477 43.9531L420.016 41.5C420.203 40.6406 420.109 39.9557 419.734 39.4453C419.359 38.9297 418.836 38.6719 418.164 38.6719C417.732 38.6719 417.352 38.7865 417.023 39.0156C416.701 39.2396 416.453 39.5521 416.281 39.9531C416.109 40.3542 416.023 40.8125 416.023 41.3281C416.023 42.1667 416.245 42.8151 416.688 43.2734C417.13 43.7266 417.784 43.9531 418.648 43.9531H419.477ZM417.094 35.9844C416.896 35.9844 416.727 35.9167 416.586 35.7812C416.451 35.6406 416.383 35.4766 416.383 35.2891C416.383 35.0964 416.451 34.9323 416.586 34.7969C416.727 34.6562 416.896 34.5859 417.094 34.5859C417.297 34.5859 417.466 34.6562 417.602 34.7969C417.742 34.9323 417.812 35.0964 417.812 35.2891C417.812 35.4766 417.742 35.6406 417.602 35.7812C417.461 35.9167 417.292 35.9844 417.094 35.9844ZM419.367 35.9844C419.169 35.9844 419 35.9167 418.859 35.7812C418.724 35.6406 418.656 35.4766 418.656 35.2891C418.656 35.0964 418.724 34.9323 418.859 34.7969C419 34.6562 419.169 34.5859 419.367 34.5859C419.57 34.5859 419.74 34.6562 419.875 34.7969C420.016 34.9323 420.086 35.0964 420.086 35.2891C420.086 35.4766 420.016 35.6406 419.875 35.7812C419.734 35.9167 419.565 35.9844 419.367 35.9844ZM426.641 44.8438C425.594 44.8438 424.805 44.5651 424.273 44.0078C423.747 43.4505 423.484 42.6068 423.484 41.4766L423.445 36.5312V33.8828H424.648V36.5312L424.617 41.4766C424.617 42.3359 424.802 42.9635 425.172 43.3594C425.547 43.7552 426.115 43.9531 426.875 43.9531H426.922L427.023 43.9844V44.8125L426.922 44.8438H426.641ZM437.242 41.8047C437.242 41.138 437.052 40.612 436.672 40.2266C436.292 39.8411 435.732 39.7266 434.992 39.8828L429.172 41.2578V43.9531H434.977C435.732 43.9531 436.297 43.763 436.672 43.3828C437.052 43.0026 437.242 42.4766 437.242 41.8047ZM438.062 43.3203C438.5 43.7422 439.055 43.9531 439.727 43.9531H439.875L439.984 43.9922V44.8125L439.883 44.8438H439.391C438.76 44.8438 438.232 44.7135 437.805 44.4531C437.695 44.3906 437.56 44.2917 437.398 44.1562C436.773 44.6146 435.966 44.8438 434.977 44.8438H426.469L426.367 44.8125V43.9844L426.469 43.9531H428.039V40.1797V36.4688V33.7812H429.172V36.4688V40.2188L435.07 38.7734C436.138 38.5755 436.956 38.7917 437.523 39.4219C438.091 40.0469 438.375 40.8411 438.375 41.8047C438.375 42.3464 438.271 42.8516 438.062 43.3203ZM440.508 44.8438H439.445L439.344 44.8125V43.9844L439.445 43.9531H440.273C441.034 43.9531 441.599 43.7552 441.969 43.3594C442.344 42.9635 442.531 42.3359 442.531 41.4766V38H443.664V41.4766C443.664 42.6068 443.398 43.4505 442.867 44.0078C442.341 44.5651 441.555 44.8438 440.508 44.8438ZM441.617 48.0391C441.419 48.0391 441.25 47.9688 441.109 47.8281C440.974 47.6927 440.906 47.5312 440.906 47.3438C440.906 47.151 440.974 46.9844 441.109 46.8438C441.25 46.7083 441.419 46.6406 441.617 46.6406C441.82 46.6406 441.99 46.7083 442.125 46.8438C442.266 46.9844 442.336 47.151 442.336 47.3438C442.336 47.5312 442.266 47.6927 442.125 47.8281C441.984 47.9688 441.815 48.0391 441.617 48.0391Z" fill="white"></path>
</g>
</g>
<defs>
<clipPath id="bgblur_3_317_7422_clip_path" transform="translate(-309 0)"><rect x="329" y="20" width="136" height="40" rx="20"></rect>
</clipPath><linearGradient id="paint0_linear_317_7422" x1="0" y1="0" x2="484.129" y2="242.793" gradientUnits="userSpaceOnUse">
<stop stop-color="#B80007"></stop>
<stop offset="1" stop-color="#520003"></stop>
</linearGradient>
<linearGradient id="paint1_linear_317_7422" x1="452.333" y1="41.2974" x2="428.245" y2="143.843" gradientUnits="userSpaceOnUse">
<stop stop-color="#E43734"></stop>
<stop offset="1" stop-color="#7E1F1D"></stop>
</linearGradient>
<linearGradient id="paint2_linear_317_7422" x1="475.954" y1="-59.2598" x2="454.851" y2="30.5798" gradientUnits="userSpaceOnUse">
<stop stop-color="#E43734"></stop>
<stop offset="1" stop-color="#7E1F1D"></stop>
</linearGradient>
<linearGradient id="paint3_linear_317_7422" x1="319.628" y1="-95.9851" x2="298.522" y2="-6.13207" gradientUnits="userSpaceOnUse">
<stop stop-color="#E43734"></stop>
<stop offset="1" stop-color="#7E1F1D"></stop>
</linearGradient>
<linearGradient id="paint4_linear_317_7422" x1="16.1282" y1="-47.9189" x2="-4.97551" y2="41.9248" gradientUnits="userSpaceOnUse">
<stop stop-color="#E43734"></stop>
<stop offset="1" stop-color="#7E1F1D"></stop>
</linearGradient>
<linearGradient id="paint5_linear_317_7422" x1="293.05" y1="17.1165" x2="271.944" y2="106.97" gradientUnits="userSpaceOnUse">
<stop stop-color="#E43734"></stop>
<stop offset="1" stop-color="#7E1F1D"></stop>
</linearGradient>
<linearGradient id="paint6_linear_317_7422" x1="79.2894" y1="86.4886" x2="58.2342" y2="176.125" gradientUnits="userSpaceOnUse">
<stop stop-color="#E43734"></stop>
<stop offset="1" stop-color="#7E1F1D"></stop>
</linearGradient>
<linearGradient id="paint7_linear_317_7422" x1="266.498" y1="130.241" x2="245.392" y2="220.094" gradientUnits="userSpaceOnUse">
<stop stop-color="#E43734"></stop>
<stop offset="1" stop-color="#7E1F1D"></stop>
</linearGradient>
<linearGradient id="paint8_linear_317_7422" x1="422.825" y1="166.963" x2="401.719" y2="256.816" gradientUnits="userSpaceOnUse">
<stop stop-color="#E43734"></stop>
<stop offset="1" stop-color="#7E1F1D"></stop>
</linearGradient>
<clipPath id="clip0_317_7422">
<rect width="485" height="260" rx="24" fill="white"></rect>
</clipPath>
<clipPath id="clip1_317_7422">
<rect width="677.97" height="326.43" fill="white" transform="translate(-131.109 -202.766) rotate(13.2188)"></rect>
</clipPath>
<clipPath id="clip2_317_7422">
<rect width="66" height="32" fill="white" transform="translate(20 24)"></rect>
</clipPath>
</defs>
</svg>
